<svg width="25" height="25" viewBox="0 0 25 25" fill="none" xmlns="http://www.w3.org/2000/svg">
<path d="M11.9838 12.5454H4.82904M4.62624 13.4833L3.44417 17.0144C2.79676 18.9482 2.47305 19.9152 2.70536 20.5106C2.90709 21.0278 3.34037 21.4198 3.87501 21.5691C4.49067 21.7408 5.42056 21.3224 7.28032 20.4855L19.2031 15.1202C21.0184 14.3033 21.9261 13.895 22.2065 13.3275C22.4503 12.8346 22.4503 12.2561 22.2065 11.7632C21.9261 11.1959 21.0184 10.7874 19.2031 9.97054L7.25976 4.59605C5.40559 3.76168 4.47852 3.34449 3.86347 3.51563C3.32933 3.66426 2.8961 4.05526 2.69366 4.57141C2.46056 5.16575 2.7808 6.13061 3.42131 8.06033L4.62853 11.6975C4.73853 12.029 4.79354 12.1947 4.81525 12.3641C4.83452 12.5146 4.83432 12.6668 4.81467 12.8172C4.79252 12.9866 4.7371 13.1521 4.62624 13.4833Z" stroke="white" stroke-width="2" stroke-linecap="round" stroke-linejoin="round"/>
</svg>
