<svg width="21" height="21" viewBox="0 0 21 21" fill="none" xmlns="http://www.w3.org/2000/svg">
<path fill-rule="evenodd" clip-rule="evenodd" d="M6.96 17.7482C7.11462 17.9512 7.32074 18.0528 7.57843 18.0528C7.73305 18.0528 7.88767 18.002 8.04229 17.9005V17.8497L12.9386 11.8591C13.2478 11.6053 13.2994 11.1483 13.0417 10.8437L12.114 9.62531L18.1957 4.85311C18.4018 4.65005 18.4018 4.34543 18.2472 4.14237C18.041 3.88853 17.7318 3.88853 17.5257 4.04083L11.4955 8.81302L10.5678 7.59459C10.3101 7.28998 9.84621 7.18844 9.53696 7.39151L2.11525 10.5899L2.06369 10.6407C1.90907 10.793 1.80601 10.9453 1.75444 11.1483C1.70288 11.3514 1.75444 11.5545 1.90907 11.7068L6.96 17.7482ZM11.4563 8.86379L11.4955 8.91455L17.5772 4.14237C17.7567 4.00972 17.9754 3.99261 18.131 4.12452C18.0205 3.98632 17.7771 3.94542 17.6287 4.09159L11.5471 8.86379H11.4955H11.4563ZM7.52693 16.9359L2.8883 11.3514L7.3723 9.42223L10.4131 13.3821L7.52693 16.9359ZM11.0832 12.6206L8.30004 9.0161L9.89777 8.35611L12.1655 11.3007L11.0832 12.6206ZM16.1341 13.4837C16.1341 13.7883 16.3917 13.9914 16.6494 13.9914C16.9071 13.9914 17.1133 13.7375 17.1649 13.4837V12.7729H17.8864C18.1957 12.7729 18.4018 12.5699 18.4018 12.2652C18.4018 11.9606 18.1441 11.7576 17.8864 11.7576H17.1649V11.0468C17.1649 10.7422 16.9587 10.5391 16.6494 10.5391C16.3402 10.5391 16.1341 10.793 16.1341 11.0468V11.7576H15.4125C15.1033 11.7576 14.8971 11.9606 14.8971 12.2652C14.8971 12.5699 15.1548 12.7729 15.4125 12.7729H16.1341V13.4837ZM11.3417 15.5408C11.3412 15.5488 11.3409 15.5569 11.3409 15.5652C11.3409 15.7682 11.4956 15.9205 11.7017 15.9205H11.7496C11.5519 15.9188 11.3554 15.7773 11.3417 15.5408ZM13.3526 15.9205C13.3693 15.9209 13.3804 15.9267 13.3878 15.9342C13.4025 15.9493 13.4025 15.9713 13.4025 15.9713V15.9205H13.3526ZM13.4025 17.5451V17.5959C13.4025 17.799 13.5572 17.9512 13.7633 17.9512C13.7719 17.9512 13.7804 17.951 13.7888 17.9505C13.5917 17.9383 13.4025 17.7883 13.4025 17.5451ZM13.2479 17.5959C13.2479 17.9005 13.5056 18.1036 13.7633 18.1036C14.0725 18.1036 14.2787 17.8497 14.2787 17.5959V16.0221H15.8764C16.1857 16.0221 16.3918 15.7682 16.3918 15.5144C16.3918 15.2098 16.1341 15.0067 15.8764 15.0067H14.2787V13.4329C14.2787 13.1283 14.0725 12.9252 13.7633 12.9252C13.454 12.9252 13.2479 13.1791 13.2479 13.4329V15.0067H11.6502C11.3409 15.0067 11.1348 15.2606 11.1348 15.5144C11.1348 15.819 11.3924 16.0221 11.6502 16.0221H13.2479V17.5959Z" fill="#F4C610"/>
</svg>
