<svg width="21" height="21" viewBox="0 0 21 21" fill="none" xmlns="http://www.w3.org/2000/svg">
<g clip-path="url(#clip0_127_8672)">
<path d="M18.4018 10.6031C18.4018 10.9556 18.1134 11.2441 17.7608 11.2441H10.7095V18.2954C10.7095 18.6497 10.4228 18.9368 10.0685 18.9368C9.71415 18.9368 9.42745 18.6479 9.42745 18.2954V11.2441H2.37617C2.02184 11.2441 1.73515 10.9576 1.73515 10.6035C1.73515 10.2505 2.022 9.96205 2.37617 9.96205H9.42745V2.91077C9.42745 2.55644 9.71415 2.27014 10.0685 2.27014C10.4228 2.27014 10.7095 2.5566 10.7095 2.91077V9.96205H17.7608C18.1134 9.96205 18.4018 10.2505 18.4018 10.6031Z" fill="#FEFEFE"/>
</g>
<defs>
<clipPath id="clip0_127_8672">
<rect width="20" height="20" fill="white" transform="translate(0.0684814 0.603516)"/>
</clipPath>
</defs>
</svg>
