<svg width="25" height="25" viewBox="0 0 25 25" fill="none" xmlns="http://www.w3.org/2000/svg">
<path d="M21.8336 4.80117L20.3684 3.33594C19.8806 2.84773 19.2399 2.60352 18.6032 2.60352C17.9634 2.60352 17.3236 2.84766 16.8353 3.33594L4.33051 15.8418C3.99583 16.1764 3.76294 16.5992 3.65943 17.0609L2.58094 21.8578C2.50203 22.2168 2.80898 22.6035 3.19147 22.6035C3.23237 22.6035 3.27413 22.5995 3.31639 22.591C3.31639 22.591 6.6214 21.8898 8.11316 21.5391C8.56393 21.4329 8.96744 21.2061 9.29477 20.8789L21.8414 8.33202C22.8141 7.35742 22.8102 5.77773 21.8336 4.80117ZM8.40815 19.9941C8.24335 20.1589 8.04675 20.2691 7.82379 20.3216C6.85975 20.5486 5.10354 20.929 4.01684 21.1622L4.87776 17.3337C4.92979 17.1025 5.04584 16.8919 5.21346 16.7243L14.8851 7.05246L18.1179 10.2853L8.40815 19.9941ZM20.9548 7.44727L19.0005 9.40117L15.7678 6.16836L17.7181 4.21797C17.9548 3.98359 18.2673 3.85352 18.6032 3.85352C18.9392 3.85352 19.2509 3.98359 19.4872 4.21973L20.9524 5.68496C21.4391 6.17266 21.4391 6.96289 20.9548 7.44727Z" fill="#515D68"/>
</svg>
