<svg width="17" height="17" viewBox="0 0 17 17" fill="none" xmlns="http://www.w3.org/2000/svg">
<path fill-rule="evenodd" clip-rule="evenodd" d="M9.28556 2.24955C9.33212 2.296 9.36906 2.35118 9.39427 2.41192C9.41948 2.47267 9.43245 2.53779 9.43245 2.60355C9.43245 2.66932 9.41948 2.73444 9.39427 2.79519C9.36906 2.85593 9.33212 2.91111 9.28556 2.95755L3.63856 8.60355L9.28556 14.2496C9.37944 14.3434 9.43219 14.4708 9.43219 14.6036C9.43219 14.7363 9.37944 14.8637 9.28556 14.9576C9.19167 15.0514 9.06433 15.1042 8.93156 15.1042C8.79878 15.1042 8.67144 15.0514 8.57756 14.9576L2.57756 8.95755C2.53099 8.91111 2.49405 8.85593 2.46885 8.79519C2.44364 8.73444 2.43066 8.66932 2.43066 8.60355C2.43066 8.53779 2.44364 8.47267 2.46885 8.41192C2.49405 8.35118 2.53099 8.296 2.57756 8.24955L8.57756 2.24955C8.624 2.20299 8.67918 2.16605 8.73992 2.14084C8.80067 2.11564 8.86579 2.10266 8.93156 2.10266C8.99732 2.10266 9.06245 2.11564 9.12319 2.14084C9.18394 2.16605 9.23911 2.20299 9.28556 2.24955Z" fill="#494A4A"/>
<path fill-rule="evenodd" clip-rule="evenodd" d="M13.2856 2.24955C13.3321 2.296 13.3691 2.35118 13.3943 2.41192C13.4195 2.47267 13.4325 2.53779 13.4325 2.60355C13.4325 2.66932 13.4195 2.73444 13.3943 2.79519C13.3691 2.85593 13.3321 2.91111 13.2856 2.95755L7.63856 8.60355L13.2856 14.2496C13.332 14.296 13.3689 14.3512 13.3941 14.412C13.4192 14.4727 13.4322 14.5378 13.4322 14.6036C13.4322 14.6693 13.4192 14.7344 13.3941 14.7951C13.3689 14.8559 13.332 14.9111 13.2856 14.9576C13.2391 15.004 13.1839 15.0409 13.1231 15.0661C13.0624 15.0912 12.9973 15.1042 12.9316 15.1042C12.8658 15.1042 12.8007 15.0912 12.74 15.0661C12.6792 15.0409 12.624 15.004 12.5776 14.9576L6.57756 8.95755C6.53099 8.91111 6.49405 8.85593 6.46884 8.79519C6.44364 8.73444 6.43066 8.66932 6.43066 8.60355C6.43066 8.53779 6.44364 8.47267 6.46884 8.41192C6.49405 8.35118 6.53099 8.296 6.57756 8.24955L12.5776 2.24955C12.624 2.20299 12.6792 2.16605 12.7399 2.14084C12.8007 2.11564 12.8658 2.10266 12.9316 2.10266C12.9973 2.10266 13.0624 2.11564 13.1232 2.14084C13.1839 2.16605 13.2391 2.20299 13.2856 2.24955Z" fill="#494A4A"/>
</svg>
