<svg width="17" height="17" viewBox="0 0 17 17" fill="none" xmlns="http://www.w3.org/2000/svg">
<path fill-rule="evenodd" clip-rule="evenodd" d="M5.57756 2.24955C5.624 2.20299 5.67918 2.16605 5.73992 2.14084C5.80067 2.11564 5.86579 2.10266 5.93156 2.10266C5.99732 2.10266 6.06245 2.11564 6.12319 2.14084C6.18394 2.16605 6.23911 2.20299 6.28556 2.24955L12.2856 8.24955C12.3321 8.296 12.3691 8.35118 12.3943 8.41192C12.4195 8.47267 12.4325 8.53779 12.4325 8.60355C12.4325 8.66932 12.4195 8.73444 12.3943 8.79519C12.3691 8.85593 12.3321 8.91111 12.2856 8.95755L6.28556 14.9576C6.19167 15.0514 6.06433 15.1042 5.93156 15.1042C5.79878 15.1042 5.67144 15.0514 5.57756 14.9576C5.48367 14.8637 5.43093 14.7363 5.43093 14.6036C5.43093 14.4708 5.48367 14.3434 5.57756 14.2496L11.2246 8.60355L5.57756 2.95756C5.53099 2.91111 5.49405 2.85593 5.46884 2.79519C5.44364 2.73444 5.43066 2.66932 5.43066 2.60355C5.43066 2.53779 5.44364 2.47267 5.46884 2.41192C5.49405 2.35118 5.53099 2.296 5.57756 2.24955Z" fill="#494A4A"/>
</svg>
