<svg width="17" height="17" viewBox="0 0 17 17" fill="none" xmlns="http://www.w3.org/2000/svg">
<path fill-rule="evenodd" clip-rule="evenodd" d="M12.2856 2.24955C12.3321 2.296 12.3691 2.35118 12.3943 2.41192C12.4195 2.47267 12.4325 2.53779 12.4325 2.60355C12.4325 2.66932 12.4195 2.73444 12.3943 2.79519C12.3691 2.85593 12.3321 2.91111 12.2856 2.95756L6.63856 8.60355L12.2856 14.2496C12.3794 14.3434 12.4322 14.4708 12.4322 14.6036C12.4322 14.7363 12.3794 14.8637 12.2856 14.9576C12.1917 15.0514 12.0643 15.1042 11.9316 15.1042C11.7988 15.1042 11.6714 15.0514 11.5776 14.9576L5.57756 8.95755C5.53099 8.91111 5.49405 8.85593 5.46884 8.79519C5.44364 8.73444 5.43066 8.66932 5.43066 8.60355C5.43066 8.53779 5.44364 8.47267 5.46884 8.41192C5.49405 8.35118 5.53099 8.296 5.57756 8.24955L11.5776 2.24955C11.624 2.20299 11.6792 2.16605 11.7399 2.14084C11.8007 2.11564 11.8658 2.10266 11.9316 2.10266C11.9973 2.10266 12.0624 2.11564 12.1232 2.14084C12.1839 2.16605 12.2391 2.20299 12.2856 2.24955Z" fill="#494A4A"/>
</svg>
